<?xml version="1.0" standalone="no"?>
<!DOCTYPE svg PUBLIC "-//W3C//DTD SVG 20010904//EN"
 "http://www.w3.org/TR/2001/REC-SVG-20010904/DTD/svg10.dtd">
<svg version="1.0" xmlns="http://www.w3.org/2000/svg"
 width="476.000000pt" height="588.000000pt" viewBox="0 0 476.000000 588.000000"
 preserveAspectRatio="xMidYMid meet">
<metadata>
Created by potrace 1.15, written by Peter Selinger 2001-2017
</metadata>
<g transform="translate(0.000000,588.000000) scale(0.100000,-0.100000)"
fill="#000000" stroke="none">
<path d="M1257 5870 c-100 -26 -232 -116 -358 -247 -414 -431 -771 -1315 -875
-2173 -25 -204 -26 -638 -1 -803 67 -448 202 -658 447 -698 174 -28 413 54
683 235 361 241 681 554 1191 1166 414 497 566 670 756 861 205 206 242 222
320 140 187 -196 -1 -644 -565 -1352 -113 -143 -152 -207 -142 -233 6 -14 14
-16 39 -11 75 16 287 149 551 348 205 154 310 220 492 308 164 80 242 103 334
97 81 -4 120 -28 152 -95 57 -118 22 -374 -96 -708 -82 -229 -125 -326 -233
-515 -218 -382 -511 -735 -1017 -1224 -338 -327 -439 -411 -561 -468 -78 -37
-88 -34 -124 38 -22 44 -25 60 -24 169 1 176 42 378 293 1435 150 631 186 805
255 1205 77 448 73 415 44 415 -36 0 -111 -52 -191 -133 -92 -92 -134 -156
-142 -216 -20 -142 -79 -466 -110 -597 -68 -292 -128 -513 -434 -1604 -72
-256 -148 -537 -168 -625 -34 -145 -37 -174 -38 -305 0 -163 13 -229 53 -260
56 -45 157 -12 339 111 526 353 1130 922 1613 1520 377 466 837 1292 965 1736
81 278 68 479 -35 538 -28 16 -52 20 -115 19 -259 -3 -704 -210 -1101 -514
-55 -42 -106 -80 -112 -84 -6 -4 49 81 124 188 318 460 436 686 488 940 20 94
21 245 2 289 -45 110 -172 123 -342 36 -298 -153 -647 -500 -1429 -1424 -60
-72 -231 -252 -380 -401 -432 -433 -561 -522 -783 -540 -166 -13 -312 43 -438
170 -171 172 -225 386 -210 836 22 688 187 1323 425 1640 80 107 168 155 246
136 38 -10 103 -73 130 -127 63 -124 93 -327 75 -515 -11 -125 -23 -185 -65
-335 -25 -89 -26 -129 -1 -129 19 0 207 153 347 282 138 128 154 152 184 288
23 103 31 425 15 572 -34 306 -135 529 -272 599 -48 25 -142 33 -201 19z"/>
</g>
</svg>
