<?xml version="1.0" standalone="no"?>
<!DOCTYPE svg PUBLIC "-//W3C//DTD SVG 20010904//EN"
 "http://www.w3.org/TR/2001/REC-SVG-20010904/DTD/svg10.dtd">
<svg version="1.0" xmlns="http://www.w3.org/2000/svg"
 width="588.000000pt" height="588.000000pt" viewBox="0 0 588.000000 588.000000"
 preserveAspectRatio="xMidYMid meet">
<metadata>
Created by potrace 1.11, written by Peter Selinger 2001-2013
</metadata>
<g transform="translate(0.000000,588.000000) scale(0.100000,-0.100000)"
fill="#000000" stroke="none">
<path d="M1815 5861 c-77 -22 -125 -47 -205 -108 -241 -179 -493 -554 -684
-1017 -87 -209 -215 -602 -240 -736 -2 -14 -11 -54 -20 -90 -17 -72 -18 -78
-45 -235 -11 -60 -23 -137 -26 -170 -4 -33 -9 -73 -11 -90 -18 -133 -24 -483
-11 -635 17 -190 55 -376 102 -497 138 -351 406 -426 812 -227 326 160 785
555 1164 999 19 22 39 45 44 51 6 7 26 31 44 54 19 23 40 48 45 54 6 6 28 32
49 58 21 26 43 53 50 60 7 7 24 29 38 48 15 19 37 46 49 60 12 14 40 47 63 75
118 140 213 251 222 261 5 6 30 35 55 64 25 30 54 63 65 75 11 11 54 59 95
105 129 146 303 319 353 352 40 26 54 30 90 25 100 -13 158 -158 133 -332 -32
-222 -258 -609 -616 -1055 -114 -142 -151 -200 -148 -229 2 -20 8 -25 23 -23
62 10 306 161 499 307 232 177 338 246 522 338 303 152 460 151 525 -1 31 -71
30 -211 -2 -350 -6 -26 -12 -55 -14 -64 -17 -83 -116 -386 -156 -476 -90 -206
-214 -425 -339 -602 -125 -177 -129 -183 -153 -210 -12 -14 -32 -38 -45 -54
-48 -62 -198 -232 -286 -325 -84 -88 -507 -505 -586 -578 -198 -183 -368 -291
-424 -270 -45 17 -78 177 -64 307 11 102 39 262 63 370 2 8 22 96 44 195 58
258 89 394 187 800 104 436 118 497 150 650 14 66 27 129 30 140 6 29 63 334
69 373 24 152 46 276 50 282 2 3 6 37 10 75 4 39 8 74 9 79 3 24 -36 13 -92
-24 -69 -46 -191 -172 -226 -234 -13 -23 -27 -66 -30 -96 -4 -30 -15 -104 -26
-165 -11 -60 -21 -121 -24 -135 -13 -77 -21 -117 -48 -235 -36 -160 -34 -151
-47 -205 -7 -25 -13 -52 -15 -60 -34 -139 -191 -709 -272 -990 -24 -85 -46
-166 -49 -180 -3 -14 -9 -36 -14 -50 -5 -14 -31 -101 -56 -195 -26 -93 -53
-190 -61 -215 -12 -41 -34 -121 -40 -145 -1 -5 -16 -64 -32 -130 -17 -66 -35
-145 -41 -175 -6 -30 -13 -68 -17 -85 -13 -68 -13 -232 2 -300 34 -160 121
-160 361 -2 141 93 468 340 513 387 3 3 55 48 115 100 262 226 596 564 836
845 19 22 39 46 46 53 7 7 29 34 50 60 21 26 40 49 43 52 22 20 190 244 247
330 258 386 463 753 631 1130 73 164 145 396 159 510 24 192 -13 310 -105 341
-36 12 -137 15 -170 5 -9 -3 -32 -8 -49 -11 -121 -20 -458 -161 -597 -248
-176 -111 -455 -307 -500 -353 -30 -30 -16 -2 42 79 31 45 65 93 74 107 10 14
32 45 49 70 116 163 329 504 329 525 0 3 13 32 29 65 39 80 83 214 106 325 4
17 9 69 12 116 10 165 -39 239 -160 239 -68 0 -174 -38 -265 -96 -53 -34 -203
-145 -228 -168 -6 -6 -43 -39 -82 -74 -114 -101 -269 -258 -431 -437 -35 -38
-83 -90 -105 -115 -23 -25 -70 -79 -106 -120 -36 -41 -67 -77 -70 -80 -7 -7
-209 -245 -284 -335 -136 -163 -527 -568 -691 -716 -64 -57 -208 -168 -260
-200 -123 -74 -307 -98 -452 -59 -263 71 -423 295 -458 640 -6 58 -6 407 0
500 5 72 14 186 20 230 12 98 16 127 20 150 2 14 7 45 10 70 4 25 18 99 32
165 14 66 27 129 29 140 2 11 22 83 44 159 127 434 322 731 476 722 158 -9
258 -239 249 -576 -2 -80 -6 -156 -9 -170 -6 -26 -12 -58 -20 -100 -7 -34 -11
-52 -39 -150 -38 -137 -23 -142 107 -36 127 103 156 128 267 235 116 110 132
141 164 331 11 61 13 392 4 475 -37 325 -134 542 -272 609 -68 33 -127 38
-202 17z"/>
</g>
</svg>
